<?xml version="1.0" standalone="no"?>
<!DOCTYPE svg PUBLIC "-//W3C//DTD SVG 20010904//EN"
 "http://www.w3.org/TR/2001/REC-SVG-20010904/DTD/svg10.dtd">
<svg version="1.0" xmlns="http://www.w3.org/2000/svg"
 width="256.000000pt" height="256.000000pt" viewBox="0 0 256.000000 256.000000"
 preserveAspectRatio="xMidYMid meet">
<g transform="translate(0.000000,256.000000) scale(0.100000,-0.100000)"
fill="#000000" stroke="none">
<path d="M870 2238 c-1 -40 -1 -206 -1 -368 -1 -162 -3 -298 -5 -302 -2 -3
-27 16 -54 42 -70 68 -140 100 -233 107 -384 29 -615 -335 -563 -888 25 -274
175 -490 381 -550 29 -8 93 -14 150 -14 91 0 106 3 165 31 62 29 145 98 168
140 15 27 19 18 32 -60 6 -38 13 -73 16 -78 3 -4 89 -8 192 -8 l188 0 0 1010
-1 1010 -217 0 -218 0 0 -72z m-86 -892 c86 -50 85 -44 84 -366 l0 -284 -32
-30 c-86 -81 -241 -86 -312 -10 -53 55 -75 141 -78 303 -6 287 75 431 237 418
37 -3 73 -14 101 -31z"/>
<path d="M1444 1290 l0 -1000 183 0 183 0 0 400 0 400 314 0 c242 0 315 3 318
12 3 11 2 292 -1 336 -1 9 -71 12 -316 12 l-315 0 0 240 0 240 372 2 371 3 0
168 c-1 92 -2 172 -2 177 -1 7 -193 10 -554 10 l-553 0 0 -1000z"/>
</g>
</svg>
